<?xml version="1.0" encoding="UTF-8"?>
<svg width="70px" height="70px" viewBox="0 0 70 70" version="1.1" xmlns="http://www.w3.org/2000/svg" xmlns:xlink="http://www.w3.org/1999/xlink">
    <!-- Generator: Sketch 63.1 (92452) - https://sketch.com -->
    <title>Icon</title>
    <desc>Created with Sketch.</desc>
    <defs>
        <rect id="path-1" x="0" y="0" width="1295" height="990" rx="4"></rect>
        <filter x="-1.2%" y="-1.5%" width="102.3%" height="103.0%" filterUnits="objectBoundingBox" id="filter-2">
            <feOffset dx="0" dy="0" in="SourceAlpha" result="shadowOffsetOuter1"></feOffset>
            <feGaussianBlur stdDeviation="5" in="shadowOffsetOuter1" result="shadowBlurOuter1"></feGaussianBlur>
            <feColorMatrix values="0 0 0 0 0   0 0 0 0 0   0 0 0 0 0  0 0 0 0.0964270105 0" type="matrix" in="shadowBlurOuter1"></feColorMatrix>
        </filter>
    </defs>
    <g id="For-Presentation" stroke="none" stroke-width="1" fill="none" fill-rule="evenodd">
        <g id="Desktop_Dashboard_Admin_Customize_Homepage" transform="translate(-665.000000, -1707.000000)">
            <rect id="Rectangle" fill="#F7F7F9" x="0" y="-293" width="1600" height="3647"></rect>
            <g id="Group-10" transform="translate(267.000000, 1497.000000)">
                <g id="Rectangle-Copy-6">
                    <use fill="black" fill-opacity="1" filter="url(#filter-2)" xlink:href="#path-1"></use>
                    <use fill="#FFFFFF" fill-rule="evenodd" xlink:href="#path-1"></use>
                </g>
                <g id="Group-9" transform="translate(30.000000, 24.000000)"></g>
            </g>
            <rect id="Rectangle-Copy-4" stroke="#DDDDDD" stroke-width="1.25" x="650.625" y="1692.625" width="98.75" height="98.75" rx="4"></rect>
            <g id="Icon" transform="translate(665.000000, 1707.000000)">
                <rect id="Rectangle" fill="#0076D1" x="0" y="0" width="70" height="70" rx="35"></rect>
                <g id="icon-theme-127" transform="translate(15.000000, 17.000000)" fill="#FFFFFF" fill-rule="nonzero">
                    <path d="M39.296,19.344 C39.504,19.448 39.672,19.604 39.804,19.812 C39.934,20.022 40,20.242 40,20.476 L40,30.476 C40,30.814 39.874,31.108 39.628,31.354 C39.38,31.602 39.086,31.726 38.75,31.726 L33.632,31.726 C33.344,33.158 32.628,34.35 31.484,35.3 C30.338,36.25 29.01,36.726 27.5,36.726 C25.988,36.726 24.66,36.25 23.516,35.3 C22.37,34.35 21.652,33.158 21.368,31.726 L18.75,31.726 C18.41,31.726 18.118,31.602 17.872,31.354 C17.624,31.106 17.5,30.814 17.5,30.476 L17.5,2.976 L1.25,2.976 C0.91,2.976 0.618,2.852 0.372,2.604 C0.124,2.358 0,2.066 0,1.726 C0,1.388 0.124,1.096 0.372,0.848 C0.618,0.6 0.91,0.476 1.25,0.476 L18.75,0.476 C19.088,0.476 19.38,0.6 19.628,0.848 C19.874,1.096 20,1.388 20,1.726 L20,6.726 L30,6.726 C30.26,6.726 30.494,6.798 30.704,6.94 C30.912,7.084 31.068,7.286 31.172,7.546 L34.766,17.078 L39.296,19.344 Z M14.628,13.348 C14.874,13.596 15,13.888 15,14.226 C15,14.564 14.874,14.858 14.628,15.104 C14.38,15.352 14.086,15.476 13.75,15.476 L6.25,15.476 C5.91,15.476 5.618,15.352 5.372,15.104 C5.124,14.858 5,14.566 5,14.226 C5,13.888 5.124,13.596 5.372,13.348 C5.618,13.1 5.912,12.976 6.25,12.976 L13.75,12.976 C14.088,12.976 14.38,13.1 14.628,13.348 Z M14.628,19.598 C14.874,19.846 15,20.138 15,20.476 C15,20.814 14.874,21.108 14.628,21.354 C14.38,21.602 14.086,21.726 13.75,21.726 L8.75,21.726 C8.41,21.726 8.118,21.602 7.872,21.354 C7.624,21.106 7.5,20.814 7.5,20.476 C7.5,20.138 7.624,19.846 7.872,19.598 C8.118,19.35 8.412,19.226 8.75,19.226 L13.75,19.226 C14.088,19.226 14.38,19.35 14.628,19.598 Z M37.5,29.226 L37.5,21.258 L33.204,19.11 C33.048,19.032 32.916,18.934 32.814,18.818 C32.708,18.7 32.63,18.564 32.58,18.408 L29.142,9.228 L20,9.228 L20,29.228 L21.368,29.228 C21.654,27.796 22.37,26.604 23.516,25.654 C24.66,24.704 25.988,24.228 27.5,24.228 C29.01,24.228 30.338,24.704 31.484,25.654 C32.628,26.606 33.346,27.796 33.632,29.228 L37.5,29.228 L37.5,29.226 Z M29.628,17.098 C29.874,17.346 30,17.638 30,17.976 C30,18.314 29.874,18.608 29.628,18.854 C29.38,19.102 29.086,19.226 28.75,19.226 L23.75,19.226 C23.41,19.226 23.118,19.102 22.872,18.854 C22.624,18.606 22.5,18.314 22.5,17.976 L22.5,12.976 C22.5,12.638 22.624,12.346 22.872,12.098 C23.118,11.85 23.412,11.726 23.75,11.726 C24.088,11.726 24.38,11.85 24.628,12.098 C24.874,12.346 25,12.638 25,12.976 L25,16.726 L28.75,16.726 C29.088,16.726 29.38,16.85 29.628,17.098 Z M30.156,33.132 C30.884,32.404 31.25,31.518 31.25,30.476 C31.25,29.434 30.884,28.55 30.156,27.82 C29.426,27.092 28.54,26.726 27.5,26.726 C26.458,26.726 25.572,27.092 24.844,27.82 C24.114,28.55 23.75,29.436 23.75,30.476 C23.75,31.518 24.114,32.404 24.844,33.132 C25.572,33.862 26.458,34.226 27.5,34.226 C28.542,34.226 29.426,33.862 30.156,33.132 Z" id="Shape"></path>
                </g>
            </g>
        </g>
    </g>
</svg>